PathFileType	4	(X/Y/Z)	/home/abdul/Desktop/myosuite/custom_workspace/IK/output/S19_12_3.trc
DataRate	CameraRate	NumFrames	NumMarkers	Units	OrigDataRate	OrigDataStartFrame	OrigNumFrames
200.0	200.0	40	3	mm	200.0	186	1483
Frame#	Time	V_Shoulder			V_Elbow			V_Wrist		
		X1	Y1	Z1	X2	Y2	Z2	X3	Y3	Z3

186	0.925	-100.94362884343032	648.7546566860143	315.8856465044177				-71.91000401974131	223.68221214197914	41.202345971660705
187	0.93	-100.82525760707419	648.4198468287123	315.886971572921				-71.64423710446839	223.32358917575766	40.920171172669555
188	0.935	-100.70775736600201	648.0877872155634	315.8887342633807				-71.39340698262419	222.97195301311683	40.64230770702564
189	0.94	-100.59116221830607	647.7585110247501	315.8909393473165				-71.15724411765974	222.62696387380646	40.36911370337903
190	0.945	-100.47550526388208	647.4320489785024	315.8935905135325				-70.93546389655339	222.288286343764	40.1009305953844
191	0.95	-100.3608186102074	647.1084293604889	315.8966903151853				-70.7277670002848	221.9555901244446	39.838082450583435
192	0.955	-100.24713337913913	646.7876780367908	315.9002401204746				-70.533839818822	221.6285507498906	39.58087535859799
193	0.96	-100.13447971463279	646.469818480367	315.904240067145				-70.35335491008243	221.30685026946412	39.329596880304436
194	0.965	-100.02288679128104	646.154871798919	315.9086890209739				-70.18597150213492	220.99017789428729	39.08451555938883
195	0.97	-99.91238282357341	645.8428567660488	315.91358453840553				-70.03133603771597	220.67823060556634	38.84588049740699
196	0.975	-99.80299507577854	645.5337898556064	315.91892283347806				-69.88908275994189	220.37071372311792	38.61392099319408
197	0.98	-99.69474987235203	645.227685279105	315.92469874917475				-69.75883433791071	220.06734143256736	38.3888462471872
198	0.985	-99.58767260877481	644.9245550260857	315.93090573331415				-69.64020253070277	219.76783726984843	38.170845130943746
199	0.99	-99.48178776272862	644.6244089073025	315.9375358190803				-69.53278888810922	219.47193456180267	37.960086021858295
200	0.995	-99.37711890551896	644.3272546005919	315.9445796102743				-69.43618548624458	219.1793768218538	37.7567167028057
201	1.0	-99.2736887136572	644.0330976992907	315.952026271355				-69.3499756960315	218.88991809991504	37.56086432616615
202	1.005	-99.17151898051812	643.7419417630534	315.9598635223192				-69.27373498238778	218.60332328587646	37.37263544142464
203	1.01	-99.07063062799183	643.4537883709246	315.9680776384528				-69.20703173179413	218.3193683662148	37.19211608528025
204	1.015	-98.97104371805369	643.1686371765081	315.97665345496927				-69.14942810578044	218.03784063346603	37.01937193295417
205	1.02	-98.87277746417901	642.8864859650809	315.9855743765349				-69.10048091773645	217.75853884850267	36.85444850914956
206	1.025	-98.77585024253476	642.6073307124876	315.9948223916619				-69.0597425303334	217.48127335576297	36.697371456891865
207	1.03	-98.68027960288441	642.3311656456563	316.00437809193454				-69.02676177073393	217.20586615178183	36.54814686226749
208	1.035	-98.58608227914719	642.0579833045664	316.014220696016				-69.00108486067137	216.93215090758002	36.4067616328818
209	1.04	-98.49327419955819	641.7877746055051	316.024328078368				-68.98225635839599	216.65997294567006	36.273183927674864
210	1.045	-98.4018704963803	641.5205289054438	316.03467680259797				-68.96982010941548	216.38918917263814	36.147363635567125
211	1.05	-98.31188551512575	641.2562340673632	316.0452421593345				-68.96332020290043	216.11966796846008	36.02923290025672
212	1.055	-98.2233328232485	640.9948765263608	316.0559982085147				-68.96230193058315	215.8512890338981	35.91870668835612
213	1.06	-98.1362252182763	640.7364413563735	316.06691782595266				-68.96631274494993	215.5839431975147	35.81568339793927
214	1.065	-98.05057473535533	640.4809123373429	316.0779727540448				-68.97490321351337	215.31753218401568	35.720045504470946
215	1.07	-97.96639265418712	640.2282720226643	316.0891336564539				-68.98762796595273	215.05196834580624	35.63166024100762
216	1.075	-97.88368950534196	639.9785018067503	316.10037017659766				-69.00404663092536	214.78717435980548	35.55038030949475
217	1.08	-97.80247507594031	639.7315819925512	316.1116509997618				-69.02372475938351	214.52308289171305	35.47604461993772
218	1.085	-97.72275841469728	639.4874918588743	316.1229439186378				-69.04623473127491	214.25963623006282	35.408479054193656
219	1.09	-97.64454783633305	639.2462097273473	316.1342159020812				-69.071156642565	213.99678589252466	35.34749725111733
220	1.095	-97.567850925355	639.0077130288774	316.1454331668727				-69.0980791695915	213.73449220702815	35.292901409797885
221	1.1	-97.49267453922504	638.7719783694625	316.15656125225655				-69.12660040784829	213.47272387038453	35.24448310764151
222	1.105	-97.41902481092886	638.5389815952132	316.1675650970215				-69.15632868239547	213.2114574871659	35.20202413008988
223	1.11	-97.34690715097027	638.308697856454	316.1784091188826				-69.18688332720392	212.95067709167404	35.165297308813074
224	1.115	-97.2763262488175	638.0811016707773	316.18905729591626				-69.21789543086643	212.6903736558848	35.13406736527867
225	1.12	-97.20728607383369	637.856166984928	316.1994732497945				-69.24900854624296	212.43054458629575	35.108091756675734
